<svg xmlns="http://www.w3.org/2000/svg" viewBox="52.65 89.05 197.40 50.65" width="197.4" height="50.7" fill="none"><path fill="#003DD1" d="M 76.25 90.363281 L 54.984375 106.484375 C 53.828125 107.363281 53.152344 108.726562 53.152344 110.175781 L 53.152344 117.199219 C 53.152344 118.476562 54.1875 119.511719 55.464844 119.511719 L 60.863281 119.511719 C 61.515625 119.511719 61.78125 120.355469 61.246094 120.726562 L 54.808594 125.203125 C 53.769531 125.921875 53.152344 127.105469 53.152344 128.371094 L 53.152344 136.527344 C 53.152344 138.003906 54.347656 139.199219 55.820312 139.199219 L 100.863281 139.199219 C 102.335938 139.199219 103.53125 138.003906 103.53125 136.527344 L 103.53125 121.828125 C 103.53125 120.550781 102.496094 119.511719 101.214844 119.511719 L 95.816406 119.511719 C 95.164062 119.511719 94.898438 118.671875 95.4375 118.296875 L 101.875 113.824219 C 102.910156 113.101562 103.53125 111.917969 103.53125 110.65625 L 103.53125 108.414062 C 103.53125 107.164062 102.925781 105.992188 101.90625 105.265625 L 80.816406 90.289062 C 79.441406 89.316406 77.59375 89.34375 76.25 90.363281 Z M 76.25 90.363281 "/><path fill="#FFAB00" d="M 88.878906 119.875 L 75.140625 131.371094 C 75.078125 131.449219 74.988281 131.507812 74.890625 131.527344 C 74.789062 131.550781 74.683594 131.535156 74.59375 131.484375 C 74.503906 131.4375 74.4375 131.359375 74.398438 131.261719 C 74.363281 131.167969 74.359375 131.0625 74.394531 130.964844 L 74.394531 121.054688 C 74.394531 120.203125 73.703125 119.511719 72.847656 119.511719 L 67.59375 119.511719 C 67.511719 119.511719 67.433594 119.488281 67.367188 119.445312 C 67.296875 119.402344 67.242188 119.34375 67.207031 119.269531 C 67.171875 119.195312 67.15625 119.117188 67.164062 119.035156 C 67.175781 118.953125 67.207031 118.878906 67.253906 118.8125 L 80.429688 107 C 80.492188 106.917969 80.578125 106.863281 80.679688 106.84375 C 80.777344 106.824219 80.882812 106.839844 80.972656 106.886719 C 81.058594 106.933594 81.128906 107.011719 81.167969 107.105469 C 81.203125 107.203125 81.207031 107.304688 81.175781 107.402344 L 81.175781 117.636719 C 81.175781 118.488281 81.867188 119.179688 82.71875 119.179688 L 88.539062 119.179688 C 88.617188 119.179688 88.695312 119.203125 88.765625 119.246094 C 88.832031 119.289062 88.886719 119.347656 88.921875 119.421875 C 88.957031 119.492188 88.972656 119.574219 88.964844 119.65625 C 88.957031 119.734375 88.925781 119.8125 88.878906 119.875 Z M 88.878906 119.875 "/><path fill="#003DD1" d="M 111.246094 138.199219 Z M 124.117188 110.015625 L 124.117188 138.199219 L 118.855469 138.199219 L 118.855469 110.015625 L 111.871094 110.015625 L 111.871094 104.707031 L 131.199219 104.707031 L 131.199219 110.015625 Z M 129.039062 138.199219 Z M 149.039062 114.273438 L 153.058594 128.867188 L 157.03125 114.273438 L 162.675781 114.273438 L 154.925781 138.199219 L 149.851562 138.199219 L 146.40625 125.375 L 142.964844 138.199219 L 137.796875 138.199219 L 130.046875 114.273438 L 135.785156 114.273438 L 140.234375 128.867188 L 144.0625 114.273438 Z M 160.851562 138.199219 Z M 180.035156 129.347656 C 180.035156 132.152344 179.320312 134.417969 177.882812 136.140625 C 176.449219 137.832031 174.261719 138.675781 171.328125 138.675781 C 169.222656 138.675781 167.5 138.246094 166.160156 137.382812 C 164.851562 136.492188 163.878906 135.34375 163.242188 133.941406 C 162.636719 132.503906 162.332031 130.972656 162.332031 129.347656 L 162.332031 123.03125 C 162.332031 120.988281 162.667969 119.28125 163.339844 117.910156 C 164.039062 116.539062 165.058594 115.503906 166.398438 114.800781 C 167.738281 114.066406 169.382812 113.699219 171.328125 113.699219 C 174.101562 113.699219 176.242188 114.53125 177.738281 116.1875 C 179.269531 117.816406 180.035156 120.097656 180.035156 123.03125 Z M 174.628906 122.742188 C 174.628906 121.976562 174.503906 121.324219 174.246094 120.78125 C 173.992188 120.207031 173.609375 119.777344 173.097656 119.488281 C 172.621094 119.171875 172.015625 119.011719 171.28125 119.011719 C 170.515625 119.011719 169.859375 119.15625 169.320312 119.441406 C 168.808594 119.730469 168.410156 120.144531 168.121094 120.6875 C 167.835938 121.226562 167.691406 121.914062 167.691406 122.742188 L 167.691406 129.730469 C 167.691406 130.367188 167.804688 130.972656 168.027344 131.546875 C 168.28125 132.121094 168.679688 132.582031 169.222656 132.933594 C 169.765625 133.285156 170.449219 133.460938 171.28125 133.460938 C 172.078125 133.460938 172.714844 133.300781 173.195312 132.984375 C 173.703125 132.664062 174.070312 132.21875 174.292969 131.644531 C 174.519531 131.070312 174.628906 130.429688 174.628906 129.730469 Z M 179.765625 138.199219 Z M 196.558594 110.304688 C 196.046875 110.113281 195.519531 109.953125 194.980469 109.824219 C 194.46875 109.699219 193.957031 109.601562 193.449219 109.539062 C 192.9375 109.472656 192.441406 109.441406 191.964844 109.441406 C 190.976562 109.441406 190.082031 109.570312 189.285156 109.824219 C 188.519531 110.082031 187.914062 110.511719 187.46875 111.117188 C 187.019531 111.722656 186.796875 112.585938 186.796875 113.699219 L 186.796875 129.203125 C 186.796875 130.191406 186.972656 131.003906 187.324219 131.644531 C 187.707031 132.25 188.25 132.710938 188.949219 133.03125 C 189.652344 133.316406 190.53125 133.460938 191.582031 133.460938 C 192.21875 133.460938 192.808594 133.367188 193.351562 133.175781 C 193.894531 132.949219 194.355469 132.664062 194.738281 132.3125 C 195.121094 131.929688 195.410156 131.484375 195.601562 130.972656 C 195.824219 130.429688 195.9375 129.855469 195.9375 129.25 L 195.9375 128.820312 L 193.207031 128.820312 L 191.535156 123.796875 L 201.246094 123.796875 L 201.246094 138.199219 L 197.5625 138.199219 L 197.324219 136.859375 C 196.78125 137.304688 196.144531 137.671875 195.410156 137.957031 C 194.675781 138.214844 193.957031 138.390625 193.257812 138.484375 C 192.554688 138.613281 191.980469 138.675781 191.535156 138.675781 C 189.714844 138.675781 188.042969 138.375 186.511719 137.765625 C 185.011719 137.160156 183.800781 136.1875 182.875 134.847656 C 181.949219 133.507812 181.488281 131.753906 181.488281 129.585938 L 181.488281 114.082031 C 181.488281 111.851562 181.886719 110.015625 182.683594 108.582031 C 183.511719 107.113281 184.675781 106.03125 186.175781 105.328125 C 187.707031 104.59375 189.523438 104.226562 191.628906 104.226562 C 192.425781 104.226562 193.191406 104.292969 193.925781 104.417969 C 194.691406 104.546875 195.425781 104.738281 196.128906 104.992188 C 196.859375 105.214844 197.546875 105.488281 198.183594 105.804688 Z M 201.15625 138.199219 Z M 208.09375 131.070312 C 208.09375 131.484375 208.15625 131.867188 208.285156 132.21875 C 208.410156 132.535156 208.585938 132.824219 208.808594 133.078125 C 209.03125 133.332031 209.320312 133.523438 209.671875 133.652344 C 210.023438 133.78125 210.40625 133.84375 210.820312 133.84375 C 211.679688 133.84375 212.652344 133.652344 213.738281 133.269531 C 214.855469 132.886719 215.90625 132.441406 216.894531 131.929688 L 218.808594 136.523438 C 217.726562 137.226562 216.449219 137.78125 214.980469 138.199219 C 213.546875 138.613281 212.109375 138.820312 210.675781 138.820312 C 209.558594 138.820312 208.507812 138.675781 207.519531 138.390625 C 206.5625 138.101562 205.714844 137.671875 204.980469 137.097656 C 204.28125 136.523438 203.722656 135.789062 203.308594 134.894531 C 202.925781 134.003906 202.734375 132.949219 202.734375 131.738281 L 202.734375 121.929688 C 202.734375 120.113281 203.117188 118.597656 203.882812 117.386719 C 204.679688 116.171875 205.746094 115.265625 207.085938 114.65625 C 208.425781 114.050781 209.925781 113.75 211.585938 113.75 C 213.273438 113.75 214.742188 114.050781 215.988281 114.65625 C 217.261719 115.230469 218.25 116.125 218.953125 117.335938 C 219.65625 118.515625 220.003906 120 220.003906 121.785156 L 220.003906 129.25 L 208.09375 129.871094 Z M 214.695312 123.222656 C 214.695312 122.488281 214.613281 121.785156 214.457031 121.117188 C 214.296875 120.414062 213.992188 119.839844 213.546875 119.394531 C 213.101562 118.949219 212.429688 118.757812 211.535156 118.820312 C 210.578125 118.851562 209.847656 119.058594 209.335938 119.441406 C 208.859375 119.792969 208.523438 120.289062 208.332031 120.925781 C 208.171875 121.53125 208.09375 122.28125 208.09375 123.175781 L 208.09375 125.039062 L 214.695312 124.609375 Z M 219.648438 138.199219 Z M 226.921875 131.882812 C 226.921875 132.582031 227.0625 133.140625 227.351562 133.558594 C 227.636719 133.941406 228.035156 134.210938 228.546875 134.371094 C 229.089844 134.53125 229.726562 134.609375 230.460938 134.609375 L 228.882812 138.820312 C 226.457031 138.757812 224.625 138.148438 223.378906 137 C 222.167969 135.820312 221.5625 134.113281 221.5625 131.882812 L 221.5625 104.707031 L 226.921875 104.707031 L 226.921875 114.273438 L 231.511719 114.273438 L 230.414062 119.105469 L 226.921875 119.105469 Z M 230.480469 138.199219 Z M 245.550781 119.730469 C 245.199219 119.539062 244.800781 119.378906 244.355469 119.25 C 243.90625 119.089844 243.429688 118.980469 242.917969 118.914062 C 242.441406 118.820312 241.929688 118.773438 241.386719 118.773438 C 241.101562 118.773438 240.78125 118.789062 240.429688 118.820312 C 240.113281 118.851562 239.792969 118.933594 239.472656 119.058594 C 239.15625 119.15625 238.882812 119.316406 238.660156 119.539062 C 238.46875 119.730469 238.375 120 238.375 120.351562 C 238.375 120.828125 238.566406 121.246094 238.945312 121.59375 C 239.363281 121.945312 239.902344 122.265625 240.574219 122.550781 C 241.242188 122.839844 241.976562 123.140625 242.773438 123.460938 C 243.574219 123.75 244.355469 124.097656 245.121094 124.515625 C 245.917969 124.929688 246.652344 125.421875 247.320312 125.996094 C 247.988281 126.570312 248.515625 127.289062 248.898438 128.148438 C 249.3125 128.980469 249.519531 129.984375 249.519531 131.164062 C 249.519531 132.441406 249.28125 133.558594 248.804688 134.511719 C 248.324219 135.46875 247.671875 136.285156 246.839844 136.953125 C 246.042969 137.589844 245.121094 138.070312 244.066406 138.390625 C 243.046875 138.738281 241.976562 138.914062 240.859375 138.914062 C 239.105469 138.914062 237.433594 138.546875 235.835938 137.816406 C 234.242188 137.082031 232.886719 136.09375 231.769531 134.847656 L 234.878906 131.59375 C 235.390625 132.042969 235.933594 132.457031 236.507812 132.839844 C 237.113281 133.191406 237.734375 133.476562 238.375 133.699219 C 239.011719 133.890625 239.648438 133.988281 240.285156 133.988281 C 240.703125 133.988281 241.117188 133.941406 241.53125 133.84375 C 241.976562 133.75 242.375 133.589844 242.726562 133.367188 C 243.078125 133.140625 243.363281 132.855469 243.589844 132.503906 C 243.8125 132.152344 243.921875 131.738281 243.921875 131.261719 C 243.921875 130.621094 243.714844 130.097656 243.300781 129.679688 C 242.917969 129.265625 242.390625 128.898438 241.722656 128.582031 C 241.085938 128.230469 240.367188 127.894531 239.570312 127.574219 C 238.804688 127.257812 238.023438 126.921875 237.226562 126.570312 C 236.460938 126.1875 235.742188 125.726562 235.070312 125.183594 C 234.433594 124.640625 233.90625 123.988281 233.492188 123.222656 C 233.109375 122.457031 232.917969 121.53125 232.917969 120.445312 C 232.917969 119.265625 233.140625 118.246094 233.589844 117.386719 C 234.035156 116.523438 234.640625 115.820312 235.40625 115.28125 C 236.203125 114.707031 237.082031 114.289062 238.039062 114.035156 C 238.996094 113.75 239.96875 113.605469 240.957031 113.605469 C 241.660156 113.605469 242.375 113.667969 243.109375 113.796875 C 243.875 113.925781 244.609375 114.117188 245.3125 114.371094 C 246.011719 114.625 246.632812 114.945312 247.175781 115.328125 Z M 245.550781 119.730469 "/></svg>