<svg xmlns="http://www.w3.org/2000/svg" viewBox="52.65 89.05 51.40 50.65" width="51.4" height="50.7" fill="none"><path fill="#FFFFFF" d="M 76.25 90.363281 L 54.984375 106.484375 C 53.828125 107.363281 53.152344 108.726562 53.152344 110.175781 L 53.152344 117.199219 C 53.152344 118.476562 54.1875 119.511719 55.464844 119.511719 L 60.863281 119.511719 C 61.515625 119.511719 61.78125 120.355469 61.246094 120.726562 L 54.808594 125.203125 C 53.769531 125.921875 53.152344 127.105469 53.152344 128.371094 L 53.152344 136.527344 C 53.152344 138.003906 54.347656 139.199219 55.820312 139.199219 L 100.863281 139.199219 C 102.335938 139.199219 103.53125 138.003906 103.53125 136.527344 L 103.53125 121.828125 C 103.53125 120.550781 102.496094 119.511719 101.214844 119.511719 L 95.816406 119.511719 C 95.164062 119.511719 94.898438 118.671875 95.4375 118.296875 L 101.875 113.824219 C 102.910156 113.101562 103.53125 111.917969 103.53125 110.65625 L 103.53125 108.414062 C 103.53125 107.164062 102.925781 105.992188 101.90625 105.265625 L 80.816406 90.289062 C 79.441406 89.316406 77.59375 89.34375 76.25 90.363281 Z M 76.25 90.363281 "/><path fill="#FFAB00" d="M 88.878906 119.875 L 75.140625 131.371094 C 75.078125 131.449219 74.988281 131.507812 74.890625 131.527344 C 74.789062 131.550781 74.683594 131.535156 74.59375 131.484375 C 74.503906 131.4375 74.4375 131.359375 74.398438 131.261719 C 74.363281 131.167969 74.359375 131.0625 74.394531 130.964844 L 74.394531 121.054688 C 74.394531 120.203125 73.703125 119.511719 72.847656 119.511719 L 67.59375 119.511719 C 67.511719 119.511719 67.433594 119.488281 67.367188 119.445312 C 67.296875 119.402344 67.242188 119.34375 67.207031 119.269531 C 67.171875 119.195312 67.15625 119.117188 67.164062 119.035156 C 67.175781 118.953125 67.207031 118.878906 67.253906 118.8125 L 80.429688 107 C 80.492188 106.917969 80.578125 106.863281 80.679688 106.84375 C 80.777344 106.824219 80.882812 106.839844 80.972656 106.886719 C 81.058594 106.933594 81.128906 107.011719 81.167969 107.105469 C 81.203125 107.203125 81.207031 107.304688 81.175781 107.402344 L 81.175781 117.636719 C 81.175781 118.488281 81.867188 119.179688 82.71875 119.179688 L 88.539062 119.179688 C 88.617188 119.179688 88.695312 119.203125 88.765625 119.246094 C 88.832031 119.289062 88.886719 119.347656 88.921875 119.421875 C 88.957031 119.492188 88.972656 119.574219 88.964844 119.65625 C 88.957031 119.734375 88.925781 119.8125 88.878906 119.875 Z M 88.878906 119.875 "/></svg>